<svg width="512" height="512" viewBox="0 0 512 512" fill="none" xmlns="http://www.w3.org/2000/svg">
  <rect width="512" height="512" rx="128" fill="url(#gradient)"/>
  <path d="M256 128C211.817 128 176 163.817 176 208V240H160C142.327 240 128 254.327 128 272V368C128 385.673 142.327 400 160 400H352C369.673 400 384 385.673 384 368V272C384 254.327 369.673 240 352 240H336V208C336 163.817 300.183 128 256 128ZM304 240H208V208C208 181.49 229.49 160 256 160C282.51 160 304 181.49 304 208V240Z" fill="white"/>
  <defs>
    <linearGradient id="gradient" x1="0" y1="0" x2="512" y2="512" gradientUnits="userSpaceOnUse">
      <stop stop-color="#10b981"/>
      <stop offset="1" stop-color="#3b82f6"/>
    </linearGradient>
  </defs>
</svg>
